<svg preserveAspectRatio="xMidYMid meet" data-bbox="47.027 4.455 120.001 192.999" viewBox="47.027 4.455 120.001 192.999" height="200" width="200" xmlns="http://www.w3.org/2000/svg" data-type="shape" role="img">
    <g>
        <path d="M165.898 69.808c-.911-1.544-3.197-4.134-8.273-4.139-5.931-.007-13.922-.005-21.018-.003h-2.462c2.31-6.329 5.09-13.723 7.799-20.928 3.566-9.485 7.253-19.293 9.876-26.688 1.202-3.388.852-6.684-.986-9.28-1.923-2.717-5.153-4.173-9.094-4.215-21.257-.225-33.231-.001-33.231-.001-5.477.001-8.848 2.294-10.609 7.216l-.578 1.615h-8.251c-5.382.002-8.694 2.253-10.423 7.085-4.321 12.078-9.065 25.31-13.848 38.654-5.808 16.203-11.676 32.57-16.918 47.236-1.362 3.808-1.089 7.354.768 9.984.993 1.408 3.366 3.769 8.094 3.771 4.876 0 9.534-.028 14.03-.057 3.897-.025 7.912-.05 12.088-.056-3.511 19.179-4.985 26.557-7.371 38.503-1.332 6.669-2.99 14.969-5.452 27.586-.462 2.368-.322 4.468.418 6.242.967 2.319 2.937 4.018 5.547 4.785a7.894 7.894 0 0 0 2.228.336c4.478-.001 7.03-4.316 8.348-6.546l.268-.452a7063.03 7063.03 0 0 0 3.375-5.667c1.095 1.855 2.891 3.217 5.163 3.884a7.876 7.876 0 0 0 2.204.319c1.624 0 3.649-.524 5.601-2.452 1.28-1.264 2.192-2.806 2.996-4.167l.267-.451c10.57-17.723 37.455-63.092 58.739-101.509 2.176-3.923 2.426-7.689.705-10.605zm-85.579 113.1c1.934-9.869 3.322-16.815 4.468-22.552 2.483-12.434 3.982-19.938 7.797-40.825a7.316 7.316 0 0 0-1.599-6.018c-1.578-1.888-3.981-2.972-6.592-2.972-4.758 0-9.293.029-13.678.057-4.362.028-8.868.057-13.58.057-.209 0-.435.003-.606-.005.034-.269.114-.64.282-1.109 5.241-14.664 11.108-31.029 16.915-47.228 4.784-13.346 9.528-26.58 13.85-38.66.137-.382.245-.6.311-.714.167-.038.524-.093 1.187-.093 0 0 21.043-.001 33.228.001.55 0 .895.078 1.086.142a2.637 2.637 0 0 1-.125.471c-2.594 7.31-6.264 17.074-9.814 26.517-3.531 9.393-7.182 19.107-9.785 26.434-.105.294-.2.592-.307.927l-2.153 6.621 15.893-.001c6.845-.002 14.536-.003 20.408.003a8.386 8.386 0 0 1-.214.413c-20.206 36.471-45.498 79.266-56.972 98.534z"></path>
    </g>
</svg>